# MagicaVoxel @ Ephtracy

# group
o 

# material
mtllib Steve.mtl
usemtl palette

# normals
vn -1 0 0
vn 1 0 0
vn 0 0 1
vn 0 0 -1
vn 0 -1 0
vn 0 1 0

# texcoords
vt 0.00195312 0.5
vt 0.0644531 0.5
vt 0.958984 0.5
vt 0.994141 0.5

# verts
v -0.3 0.3 0.1
v -0.3 0.3 -0.1
v -0.3 0.6 0.1
v -0.3 0.6 -0.1
v -0.2 0 0.1
v -0.2 0 -0.1
v -0.2 0.2 0.2
v -0.2 0.2 0.1
v -0.2 0.2 -0.1
v -0.2 0.2 -0.2
v -0.2 0.3 0.1
v -0.2 0.3 -0.1
v -0.2 0.5 0.2
v -0.2 0.5 0.1
v -0.2 0.5 -0.1
v -0.2 0.5 -0.2
v -0.2 0.6 0.2
v -0.2 0.6 0.1
v -0.2 0.6 -0.1
v -0.2 0.7 0.2
v -0.2 0.7 0.1
v -0.2 0.8 0.2
v -0.2 0.8 -0.2
v 0.1 0 0.1
v 0.1 0 -0.1
v 0.1 0.2 0.1
v 0.1 0.2 -0.1
v -0.1 0 0.1
v -0.1 0 -0.1
v -0.1 0.2 0.1
v -0.1 0.2 -0.1
v 0.2 0 0.1
v 0.2 0 -0.1
v 0.2 0.2 0.2
v 0.2 0.2 0.1
v 0.2 0.2 -0.1
v 0.2 0.2 -0.2
v 0.2 0.3 0.1
v 0.2 0.3 -0.1
v 0.2 0.5 0.2
v 0.2 0.5 0.1
v 0.2 0.5 -0.1
v 0.2 0.5 -0.2
v 0.2 0.6 0.2
v 0.2 0.6 0.1
v 0.2 0.6 -0.1
v 0.2 0.7 0.2
v 0.2 0.7 0.1
v 0.2 0.8 0.2
v 0.2 0.8 -0.2
v 0.3 0.3 0.1
v 0.3 0.3 -0.1
v 0.3 0.6 0.1
v 0.3 0.6 -0.1
v -0.2 0.2 0.2
v -0.2 0.5 0.2
v -0.2 0.6 0.2
v -0.2 0.7 0.2
v -0.2 0.8 0.2
v -0.1 0.6 0.2
v -0.1 0.7 0.2
v 0.1 0.6 0.2
v 0.1 0.7 0.2
v 0.2 0.2 0.2
v 0.2 0.5 0.2
v 0.2 0.6 0.2
v 0.2 0.7 0.2
v 0.2 0.8 0.2
v -0.3 0.3 0.1
v -0.3 0.6 0.1
v -0.2 0 0.1
v -0.2 0.2 0.1
v -0.2 0.3 0.1
v -0.2 0.5 0.1
v -0.2 0.6 0.1
v -0.1 0 0.1
v -0.1 0.2 0.1
v 0.1 0 0.1
v 0.1 0.2 0.1
v 0.2 0 0.1
v 0.2 0.2 0.1
v 0.2 0.3 0.1
v 0.2 0.5 0.1
v 0.2 0.6 0.1
v 0.3 0.3 0.1
v 0.3 0.6 0.1
v -0.3 0.3 -0.1
v -0.3 0.6 -0.1
v -0.2 0 -0.1
v -0.2 0.2 -0.1
v -0.2 0.3 -0.1
v -0.2 0.5 -0.1
v -0.2 0.6 -0.1
v -0.1 0 -0.1
v -0.1 0.2 -0.1
v 0.1 0 -0.1
v 0.1 0.2 -0.1
v 0.2 0 -0.1
v 0.2 0.2 -0.1
v 0.2 0.3 -0.1
v 0.2 0.5 -0.1
v 0.2 0.6 -0.1
v 0.3 0.3 -0.1
v 0.3 0.6 -0.1
v -0.2 0.2 -0.2
v -0.2 0.5 -0.2
v -0.2 0.8 -0.2
v 0.2 0.2 -0.2
v 0.2 0.5 -0.2
v 0.2 0.8 -0.2
v -0.2 0 0.1
v -0.1 0 0.1
v 0.1 0 0.1
v 0.2 0 0.1
v -0.2 0 -0.1
v -0.1 0 -0.1
v 0.1 0 -0.1
v 0.2 0 -0.1
v -0.2 0.2 0.2
v 0.2 0.2 0.2
v -0.2 0.2 0.1
v -0.1 0.2 0.1
v 0.1 0.2 0.1
v 0.2 0.2 0.1
v -0.2 0.2 -0.1
v -0.1 0.2 -0.1
v 0.1 0.2 -0.1
v 0.2 0.2 -0.1
v -0.2 0.2 -0.2
v 0.2 0.2 -0.2
v -0.3 0.3 0.1
v -0.2 0.3 0.1
v 0.2 0.3 0.1
v 0.3 0.3 0.1
v -0.3 0.3 -0.1
v -0.2 0.3 -0.1
v 0.2 0.3 -0.1
v 0.3 0.3 -0.1
v -0.3 0.6 0.1
v -0.2 0.6 0.1
v 0.2 0.6 0.1
v 0.3 0.6 0.1
v -0.3 0.6 -0.1
v -0.2 0.6 -0.1
v 0.2 0.6 -0.1
v 0.3 0.6 -0.1
v -0.2 0.8 0.2
v 0.2 0.8 0.2
v -0.2 0.8 -0.2
v 0.2 0.8 -0.2

# faces
f 3/1/1 2/1/1 1/1/1
f 4/1/1 2/1/1 3/1/1
f 8/1/1 6/1/1 5/1/1
f 9/1/1 6/1/1 8/1/1
f 11/2/1 8/2/1 7/2/1
f 11/2/1 10/2/1 9/2/1
f 11/2/1 9/2/1 8/2/1
f 12/2/1 10/2/1 11/2/1
f 13/2/1 11/2/1 7/2/1
f 14/2/1 11/2/1 13/2/1
f 15/2/1 10/2/1 12/2/1
f 16/2/1 10/2/1 15/2/1
f 17/1/1 14/1/1 13/1/1
f 18/1/1 14/1/1 17/1/1
f 19/1/1 16/1/1 15/1/1
f 20/4/1 18/4/1 17/4/1
f 21/1/1 19/1/1 18/1/1
f 21/4/1 18/4/1 20/4/1
f 22/1/1 21/1/1 20/1/1
f 23/1/1 16/1/1 19/1/1
f 23/1/1 21/1/1 22/1/1
f 23/1/1 19/1/1 21/1/1
f 26/1/1 25/1/1 24/1/1
f 27/1/1 25/1/1 26/1/1
f 28/1/2 29/1/2 30/1/2
f 30/1/2 29/1/2 31/1/2
f 32/1/2 33/1/2 35/1/2
f 35/1/2 33/1/2 36/1/2
f 34/2/2 35/2/2 38/2/2
f 36/2/2 37/2/2 38/2/2
f 35/2/2 36/2/2 38/2/2
f 38/2/2 37/2/2 39/2/2
f 34/2/2 38/2/2 40/2/2
f 40/2/2 38/2/2 41/2/2
f 39/2/2 37/2/2 42/2/2
f 42/2/2 37/2/2 43/2/2
f 40/1/2 41/1/2 44/1/2
f 44/1/2 41/1/2 45/1/2
f 42/1/2 43/1/2 46/1/2
f 44/4/2 45/4/2 47/4/2
f 45/1/2 46/1/2 48/1/2
f 47/4/2 45/4/2 48/4/2
f 47/1/2 48/1/2 49/1/2
f 46/1/2 43/1/2 50/1/2
f 49/1/2 48/1/2 50/1/2
f 48/1/2 46/1/2 50/1/2
f 51/1/2 52/1/2 53/1/2
f 53/1/2 52/1/2 54/1/2
f 60/1/3 57/1/3 56/1/3
f 60/4/3 58/4/3 57/4/3
f 61/1/3 59/1/3 58/1/3
f 61/4/3 58/4/3 60/4/3
f 62/1/3 60/1/3 56/1/3
f 62/3/3 61/3/3 60/3/3
f 63/1/3 59/1/3 61/1/3
f 63/3/3 61/3/3 62/3/3
f 64/2/3 56/2/3 55/2/3
f 65/1/3 62/1/3 56/1/3
f 65/2/3 56/2/3 64/2/3
f 66/4/3 63/4/3 62/4/3
f 66/1/3 62/1/3 65/1/3
f 67/1/3 59/1/3 63/1/3
f 67/4/3 63/4/3 66/4/3
f 68/1/3 59/1/3 67/1/3
f 73/1/3 70/1/3 69/1/3
f 74/1/3 70/1/3 73/1/3
f 75/1/3 70/1/3 74/1/3
f 76/1/3 72/1/3 71/1/3
f 77/1/3 72/1/3 76/1/3
f 80/1/3 79/1/3 78/1/3
f 81/1/3 79/1/3 80/1/3
f 85/1/3 84/1/3 83/1/3
f 85/1/3 83/1/3 82/1/3
f 86/1/3 84/1/3 85/1/3
f 87/1/4 88/1/4 91/1/4
f 91/1/4 88/1/4 92/1/4
f 92/1/4 88/1/4 93/1/4
f 89/1/4 90/1/4 94/1/4
f 94/1/4 90/1/4 95/1/4
f 96/1/4 97/1/4 98/1/4
f 98/1/4 97/1/4 99/1/4
f 101/1/4 102/1/4 103/1/4
f 100/1/4 101/1/4 103/1/4
f 103/1/4 102/1/4 104/1/4
f 105/2/4 106/2/4 108/2/4
f 106/1/4 107/1/4 109/1/4
f 108/2/4 106/2/4 109/2/4
f 109/1/4 107/1/4 110/1/4
f 115/1/5 112/1/5 111/1/5
f 116/1/5 112/1/5 115/1/5
f 117/1/5 114/1/5 113/1/5
f 118/1/5 114/1/5 117/1/5
f 121/2/5 120/2/5 119/2/5
f 122/2/5 120/2/5 121/2/5
f 123/2/5 120/2/5 122/2/5
f 124/2/5 120/2/5 123/2/5
f 126/2/5 123/2/5 122/2/5
f 127/2/5 123/2/5 126/2/5
f 129/2/5 126/2/5 125/2/5
f 129/2/5 128/2/5 127/2/5
f 129/2/5 127/2/5 126/2/5
f 130/2/5 128/2/5 129/2/5
f 135/1/5 132/1/5 131/1/5
f 136/1/5 132/1/5 135/1/5
f 137/1/5 134/1/5 133/1/5
f 138/1/5 134/1/5 137/1/5
f 139/1/6 140/1/6 143/1/6
f 143/1/6 140/1/6 144/1/6
f 141/1/6 142/1/6 145/1/6
f 145/1/6 142/1/6 146/1/6
f 147/1/6 148/1/6 149/1/6
f 149/1/6 148/1/6 150/1/6
